<svg xmlns="http://www.w3.org/2000/svg" viewBox="0 0 400 280" width="400" height="280">
  <defs>
    <linearGradient id="gradW1" x1="0%" y1="0%" x2="100%" y2="100%">
      <stop offset="0%" style="stop-color:#7DD3B0;stop-opacity:1" />
      <stop offset="100%" style="stop-color:#5EC9B0;stop-opacity:1" />
    </linearGradient>
    <linearGradient id="gradW2" x1="0%" y1="0%" x2="100%" y2="100%">
      <stop offset="0%" style="stop-color:#F5B841;stop-opacity:1" />
      <stop offset="100%" style="stop-color:#EEA63A;stop-opacity:1" />
    </linearGradient>
  </defs>
  
  <g stroke="#1A1A1A" stroke-width="12" stroke-linecap="round" stroke-linejoin="round">
    <path d="M30 100 Q25 30 70 25 Q120 20 115 80 Q110 140 75 180 Q40 220 35 250 Q30 260 45 265 Q75 275 110 260 Q145 245 165 200 Q185 160 160 120 Q135 80 155 40 Q175 5 215 10 Q265 20 270 70 Q275 120 240 160 Q205 200 190 240 Q175 270 135 275 Q95 280 75 250 Q55 220 70 180 Q85 140 60 100 Q35 60 30 100 Z" fill="url(#gradW1)"/>
    
    <path d="M210 100 Q205 30 250 25 Q300 20 295 80 Q290 140 255 180 Q220 220 215 250 Q210 260 225 265 Q255 275 290 260 Q325 245 345 200 Q365 160 340 120 Q315 80 335 40 Q355 5 395 10 Q445 20 450 70 Q455 120 420 160 Q385 200 370 240 Q355 270 315 275 Q275 280 255 250 Q235 220 250 180 Q265 140 240 100 Q215 60 210 100 Z" fill="url(#gradW2)"/>
  </g>
  
  <g opacity="0.8">
    <ellipse cx="55" cy="60" rx="18" ry="25" fill="white" transform="rotate(-15 55 60)"/>
    <ellipse cx="95" cy="100" rx="14" ry="20" fill="white" transform="rotate(10 95 100)"/>
    <ellipse cx="165" cy="55" rx="20" ry="30" fill="white" transform="rotate(20 165 55)"/>
    <ellipse cx="185" cy="140" rx="12" ry="18" fill="white" transform="rotate(-10 185 140)"/>
    
    <ellipse cx="275" cy="60" rx="18" ry="25" fill="white" transform="rotate(-15 275 60)"/>
    <ellipse cx="315" cy="100" rx="14" ry="20" fill="white" transform="rotate(10 315 100)"/>
    <ellipse cx="385" cy="55" rx="20" ry="30" fill="white" transform="rotate(20 385 55)"/>
    <ellipse cx="405" cy="140" rx="12" ry="18" fill="white" transform="rotate(-10 405 140)"/>
  </g>
  
  <path d="M30 100 Q25 30 70 25" stroke="white" stroke-width="8" stroke-linecap="round" opacity="0.6"/>
  <path d="M210 100 Q205 30 250 25" stroke="white" stroke-width="8" stroke-linecap="round" opacity="0.6"/>
</svg>